<svg width="24" height="24" viewBox="0 0 24 24" fill="none" xmlns="http://www.w3.org/2000/svg">
<g clip-path="url(#clip0_33_2384)">
<path d="M23.1451 8.54083L16.0641 7.51183L12.9011 1.09982C12.8092 0.943683 12.6781 0.814249 12.5207 0.724324C12.3634 0.634399 12.1853 0.587097 12.0041 0.587097C11.8229 0.587097 11.6449 0.634399 11.4875 0.724324C11.3302 0.814249 11.1991 0.943683 11.1071 1.09982L7.93814 7.51183L0.857139 8.54083C0.672479 8.56748 0.498959 8.64526 0.356195 8.76538C0.213431 8.8855 0.107117 9.04316 0.0492738 9.22054C-0.00856983 9.39792 -0.0156366 9.58794 0.0288724 9.76913C0.0733813 9.95032 0.167691 10.1154 0.301139 10.2458L5.42614 15.2398L4.21714 22.2928C4.18563 22.4767 4.2062 22.6658 4.27652 22.8386C4.34684 23.0114 4.46411 23.1611 4.61507 23.2708C4.76603 23.3804 4.94465 23.4457 5.13075 23.4591C5.31685 23.4725 5.50299 23.4337 5.66814 23.3468L12.0011 20.0178L18.3341 23.3468C18.4993 23.4337 18.6854 23.4725 18.8715 23.4591C19.0576 23.4457 19.2362 23.3804 19.3872 23.2708C19.5382 23.1611 19.6554 23.0114 19.7258 22.8386C19.7961 22.6658 19.8166 22.4767 19.7851 22.2928L18.5761 15.2398L23.7011 10.2458C23.8345 10.1156 23.9289 9.95061 23.9735 9.76957C24.0181 9.58853 24.0112 9.39862 23.9536 9.22129C23.896 9.04396 23.7899 8.88628 23.6474 8.76603C23.5049 8.64579 23.3316 8.56779 23.1471 8.54083H23.1451Z" fill="#FCD420"/>
</g>
<defs>
<clipPath id="clip0_33_2384">
<rect width="24" height="24" fill="white"/>
</clipPath>
</defs>
</svg>
